<svg width="32" height="32" viewBox="0 0 32 32" fill="none" xmlns="http://www.w3.org/2000/svg">
<path fill-rule="evenodd" clip-rule="evenodd" d="M13.0744 8.96048C13.4656 7.4674 13.8313 4.21148 14.4506 2.88064C15.0699 1.5498 16.7331 -0.0386418 18.9234 0.00071712C21.1137 0.0400761 23.2394 1.72163 23.0522 3.84061C22.865 5.9596 22.0933 8.37041 22.02 9.28047C21.9467 10.1905 21.6584 11.4775 23.0522 11.5204C24.446 11.5633 28.7777 11.5844 29.9334 11.8404C31.0891 12.0964 32.0522 13.3348 31.9978 15.0403C31.9434 16.7459 31.4624 19.5343 28.9012 19.8402H22.3641C20.2494 19.8402 19.5575 20.3739 19.2675 21.4401C18.9775 22.5064 17.8912 28.0662 17.5472 29.1199C17.2031 30.1737 14.8656 32.0184 13.4184 31.9999C11.9713 31.9813 9.27833 31.0127 9.28969 28.16C9.30104 25.3072 9.90693 22.603 9.97781 21.7601C10.0487 20.9173 10.0583 19.8402 8.60156 19.8402C7.1448 19.8402 4.16694 20.2047 2.40844 19.2002C1.68243 18.8104 1.07837 18.2511 0.655974 17.5777C0.233577 16.9042 0.00746546 16.1399 0 15.3603C0.0344062 14.1216 1.83557 11.5204 3.78469 11.5204C5.7338 11.5204 9.72389 11.5393 10.6659 11.5204C11.608 11.5015 12.6684 10.5099 13.0744 8.96048Z" fill="#FF931A"/>
</svg>
