<svg width="40" height="42" viewBox="0 0 40 42" fill="none" xmlns="http://www.w3.org/2000/svg">
<g clip-path="url(#clip0_180_5808)" filter="url(#filter0_d_180_5808)">
<path d="M26 17C26 15.4087 25.3679 13.8826 24.2426 12.7574C23.1174 11.6321 21.5913 11 20 11C18.4087 11 16.8826 11.6321 15.7574 12.7574C14.6321 13.8826 14 15.4087 14 17C14 24 11 26 11 26H29C29 26 26 24 26 17Z" stroke="#1D1D1D" stroke-width="1.5" stroke-linecap="round" stroke-linejoin="round"/>
<path d="M21.73 30C21.5542 30.3031 21.3019 30.5547 20.9982 30.7295C20.6946 30.9044 20.3504 30.9965 20 30.9965C19.6496 30.9965 19.3054 30.9044 19.0018 30.7295C18.6982 30.5547 18.4458 30.3031 18.27 30" stroke="#1D1D1D" stroke-width="1.5" stroke-linecap="round" stroke-linejoin="round"/>
</g>
<defs>
<filter id="filter0_d_180_5808" x="0" y="0" width="40" height="42" filterUnits="userSpaceOnUse" color-interpolation-filters="sRGB">
<feFlood flood-opacity="0" result="BackgroundImageFix"/>
<feColorMatrix in="SourceAlpha" type="matrix" values="0 0 0 0 0 0 0 0 0 0 0 0 0 0 0 0 0 0 127 0" result="hardAlpha"/>
<feOffset/>
<feGaussianBlur stdDeviation="5"/>
<feComposite in2="hardAlpha" operator="out"/>
<feColorMatrix type="matrix" values="0 0 0 0 0 0 0 0 0 0 0 0 0 0 0 0 0 0 0.08 0"/>
<feBlend mode="normal" in2="BackgroundImageFix" result="effect1_dropShadow_180_5808"/>
<feBlend mode="normal" in="SourceGraphic" in2="effect1_dropShadow_180_5808" result="shape"/>
</filter>
<clipPath id="clip0_180_5808">
<rect width="20" height="22" fill="white" transform="translate(10 10)"/>
</clipPath>
</defs>
</svg>
