<svg width="32" height="32" viewBox="0 0 32 32" fill="none" xmlns="http://www.w3.org/2000/svg">
<path d="M21.3335 5.3335H24.0002C24.7074 5.3335 25.3857 5.61445 25.8858 6.11454C26.3859 6.61464 26.6668 7.29292 26.6668 8.00016V26.6668C26.6668 27.3741 26.3859 28.0524 25.8858 28.5524C25.3857 29.0525 24.7074 29.3335 24.0002 29.3335H8.00016C7.29292 29.3335 6.61464 29.0525 6.11454 28.5524C5.61445 28.0524 5.3335 27.3741 5.3335 26.6668V8.00016C5.3335 7.29292 5.61445 6.61464 6.11454 6.11454C6.61464 5.61445 7.29292 5.3335 8.00016 5.3335H10.6668" stroke="#131313" stroke-opacity="0.9" stroke-width="2" stroke-linecap="round" stroke-linejoin="round"/>
<path d="M19.9998 2.6665H11.9998C11.2635 2.6665 10.6665 3.26346 10.6665 3.99984V6.6665C10.6665 7.40288 11.2635 7.99984 11.9998 7.99984H19.9998C20.7362 7.99984 21.3332 7.40288 21.3332 6.6665V3.99984C21.3332 3.26346 20.7362 2.6665 19.9998 2.6665Z" stroke="#131313" stroke-opacity="0.9" stroke-width="2" stroke-linecap="round" stroke-linejoin="round"/>
</svg>
