<svg width="52" height="30" viewBox="0 0 52 30" fill="none" xmlns="http://www.w3.org/2000/svg">
<g clip-path="url(#clip0_634_402)">
<path fill-rule="evenodd" clip-rule="evenodd" d="M14.8927 27.6747C14.2188 27.6747 4.15496 27.6756 3.99364 27.6747C3.69363 27.6609 3.56192 27.405 4.07684 27.0197C4.53102 26.6386 13.6097 17.695 14.0607 17.2762C14.5118 16.8574 16.8715 14.083 15.6415 10.071C14.4116 6.05896 10.8553 4.15015 6.90561 4.58516C2.74474 5.18639 0.506682 9.20462 0.416078 10.4804C0.325474 11.7561 1.7451 11.7432 2.08006 10.9716C2.41502 10.2 3.6759 6.35012 7.6544 6.38647C13.8476 6.5553 14.2058 11.6802 13.8943 13.2642C13.5828 14.8482 13.3151 15.1089 12.9791 15.5568C12.6432 16.0047 0.997973 27.4197 0.416078 28.0022C-0.106662 28.5582 0.38804 29.5128 0.832074 29.5579C1.27611 29.6029 14.3176 29.5579 15.0591 29.5579C16.2944 29.5579 16.4049 27.6747 14.8927 27.6747Z" fill="#FF931A"/>
<path fill-rule="evenodd" clip-rule="evenodd" d="M22.8799 23.2537C24.265 23.2619 24.4422 25.0454 22.8799 25.1369C21.3175 25.2283 19.3902 25.2754 17.7215 24.8912C16.0528 24.507 10.4333 22.1423 9.15199 17.686C7.52877 13.3698 7.8035 7.82626 11.648 3.93052C15.4924 0.034778 23.4684 -0.545899 26.7902 1.55607C30.112 3.65803 31.2402 5.11046 32.0318 6.63249C32.8233 8.15451 33.385 10.0357 33.5293 10.6445C33.6737 11.2533 32.1277 12.2165 31.6158 10.7264C31.1038 9.2362 31.1111 8.86586 30.035 6.96C28.8105 5.05413 28.0101 4.49638 25.5422 3.02987C21.4797 0.750553 16.0502 2.66207 13.1455 5.24056C10.2409 7.81906 9.24351 14.2553 10.8992 17.1947C12.5548 20.1341 15.8667 22.8688 18.8031 23.1718C21.7395 23.4747 21.6636 23.2204 22.8799 23.2537Z" fill="#FF931A"/>
<path fill-rule="evenodd" clip-rule="evenodd" d="M35.2765 14.5744C35.259 14.689 34.9647 15.9418 34.9437 16.0482C34.9227 16.1546 34.9344 16.2025 34.6941 16.212C34.4538 16.2215 31.6906 16.2715 30.8669 16.2938C30.0433 16.3162 29.8551 18.4114 31.1165 18.4227C32.3779 18.4339 33.6257 18.421 33.6957 18.4227C33.7288 18.4215 33.7618 18.4271 33.7926 18.439C33.8234 18.451 33.8514 18.469 33.8748 18.4921C33.8982 18.5151 33.9165 18.5426 33.9287 18.573C33.9408 18.6033 33.9465 18.6357 33.9453 18.6683C33.9396 18.8709 33.8753 19.7982 33.8621 19.8965C33.8489 19.9947 33.6786 20.2972 33.4461 20.3058C33.2136 20.3145 31.3911 20.3058 30.1181 20.3058C28.8452 20.3058 28.3929 23.2534 30.0349 23.2534H33.9453C34.6906 23.2534 34.917 22.5172 35.0269 22.189C35.1368 21.8609 35.6584 19.9263 35.9421 19.4052C36.2258 18.8841 37.3534 17.522 39.6028 17.522C41.8523 17.522 42.7085 19.2496 42.7644 19.8965C42.8203 20.5433 42.6329 21.2816 42.598 21.534C42.5631 21.7864 41.9672 24.7955 41.9324 24.9729C41.8976 25.1502 41.8386 25.2124 41.6828 25.2185C41.5271 25.2246 40.4315 25.2185 40.1852 25.2185C39.939 25.2185 39.713 25.2267 39.8524 24.5635C39.9919 23.9003 40.5602 21.765 40.6844 20.7152C40.8086 19.6655 39.9094 19.4203 39.4364 19.4052C38.9635 19.3901 37.9578 19.6513 37.6893 20.4696C37.4207 21.2879 37.156 22.5549 36.6909 23.581C36.2258 24.607 34.931 25.2185 34.2781 25.2185H29.2861C27.6282 25.2185 26.6238 23.1224 26.6238 22.5984C26.6238 22.0744 26.6101 21.4098 26.7902 20.9609C26.9702 20.5119 27.5709 19.8315 27.955 19.4871C28.339 19.1426 28.4634 19.0424 28.2878 18.7502C28.1121 18.4579 28.0382 17.985 28.0382 17.2764C28.0382 16.5677 28.2897 15.8189 29.2029 15.2294C30.1162 14.6399 31.4138 14.4106 32.0317 14.4106H35.1101C35.2209 14.4106 35.294 14.4598 35.2765 14.5744Z" fill="#FF931A"/>
<path fill-rule="evenodd" clip-rule="evenodd" d="M47.4235 19.5686C47.5181 19.1866 47.6066 18.3535 47.7563 18.013C47.9061 17.6724 48.3083 17.266 48.8379 17.2761C49.3676 17.2861 49.8816 17.7164 49.8363 18.2586C49.791 18.8008 49.6044 19.4177 49.5867 19.6505C49.569 19.8834 49.4993 20.2127 49.8363 20.2237C50.1733 20.2346 51.2208 20.24 51.5003 20.3055C51.7798 20.371 52.0126 20.6879 51.9995 21.1243C51.9863 21.5607 51.87 22.2742 51.2507 22.3525H49.6699C49.1586 22.3525 48.9913 22.4891 48.9211 22.7619C48.851 23.0347 48.5883 24.4573 48.5051 24.7269C48.4219 24.9966 47.8567 25.4686 47.5067 25.4638C47.1568 25.4591 46.5056 25.2112 46.5083 24.4813C46.5111 23.7514 46.6576 23.0594 46.6747 22.8437C46.6919 22.6281 46.6942 22.3525 46.3419 22.3525C45.9897 22.3525 45.2696 22.4457 44.8444 22.1887C44.6688 22.089 44.5227 21.9459 44.4206 21.7736C44.3184 21.6012 44.2638 21.4057 44.262 21.2062C44.2703 20.8892 44.7058 20.2237 45.1772 20.2237C45.6485 20.2237 46.6133 20.2285 46.8411 20.2237C47.0689 20.2188 47.3254 19.9651 47.4235 19.5686Z" fill="#FF931A"/>
<path fill-rule="evenodd" clip-rule="evenodd" d="M51.7356 28.7578C51.6695 28.8689 51.5718 28.9586 51.4545 29.0157C51.3203 29.0797 51.1726 29.1111 51.0237 29.1075H50.6659V29.7751H50.1418V27.622H51.0384C51.1853 27.6182 51.3308 27.6505 51.4619 27.7159C51.5773 27.7754 51.6729 27.8664 51.7372 27.9781C51.8038 28.0977 51.8373 28.2325 51.8343 28.3689C51.8375 28.5049 51.8034 28.6392 51.7356 28.7578ZM51.2479 28.195C51.2197 28.1459 51.1768 28.1066 51.1252 28.0823C51.0623 28.0539 50.9935 28.0403 50.9244 28.0425H50.6659V28.6971H50.9262C50.9952 28.6994 51.0636 28.6854 51.1259 28.6562C51.1776 28.631 51.2204 28.591 51.2486 28.5415C51.2759 28.4877 51.2901 28.4283 51.29 28.3681C51.2898 28.308 51.2754 28.2487 51.2479 28.195ZM45.8778 29.7057C45.7255 29.7705 45.5614 29.804 45.3955 29.804C45.2297 29.804 45.0655 29.7705 44.9133 29.7057C44.7815 29.6454 44.6698 29.5494 44.5913 29.429C44.5124 29.303 44.4723 29.1572 44.4759 29.0093V27.622H45V28.9659C44.9987 29.0356 45.0161 29.1044 45.0505 29.1653C45.0833 29.2224 45.1316 29.2694 45.1899 29.3011C45.2536 29.3335 45.3242 29.3503 45.3958 29.3503C45.4675 29.3503 45.5381 29.3335 45.6017 29.3011C45.66 29.2694 45.7083 29.2224 45.7412 29.1653C45.7756 29.1044 45.7929 29.0356 45.7915 28.9659V27.622H46.3157V29.0093C46.3193 29.1572 46.2792 29.303 46.2003 29.429C46.1216 29.5495 46.0098 29.6455 45.8778 29.7057ZM40.1861 29.6761C40.023 29.7602 39.8417 29.8041 39.6577 29.804C39.4736 29.8039 39.2923 29.7597 39.1294 29.6753C38.971 29.5885 38.8417 29.4583 38.757 29.3004C38.6671 29.1121 38.6205 28.9066 38.6205 28.6985C38.6205 28.4905 38.6671 28.285 38.757 28.0967C38.8413 27.9383 38.9707 27.8077 39.1294 27.721C39.2925 27.637 39.4737 27.5931 39.6577 27.5931C39.8418 27.5931 40.023 27.637 40.1861 27.721C40.3446 27.808 40.4739 27.9385 40.5585 28.0967C40.6488 28.2849 40.6957 28.4906 40.6957 28.6988C40.6957 28.907 40.6488 29.1126 40.5585 29.3009C40.4739 29.4588 40.3445 29.5892 40.1861 29.6761ZM40.0999 28.3438C40.0663 28.255 40.0062 28.1782 39.9276 28.1235C39.8468 28.0743 39.7538 28.0483 39.6589 28.0483C39.564 28.0483 39.4709 28.0743 39.3902 28.1235C39.3114 28.1782 39.2512 28.255 39.2171 28.3438C39.1737 28.4576 39.1531 28.5785 39.1566 28.7C39.1532 28.8208 39.1737 28.9411 39.2171 29.0541C39.2513 29.1426 39.3116 29.2191 39.3902 29.2737C39.4709 29.3228 39.564 29.3488 39.6589 29.3488C39.7538 29.3488 39.8468 29.3228 39.9276 29.2737C40.0061 29.2191 40.0661 29.1426 40.0999 29.0541C40.1428 28.9409 40.1631 28.8207 40.1598 28.7C40.1631 28.5786 40.1428 28.4577 40.0999 28.3438ZM34.3363 29.7751L33.9393 29.0379H33.6689V29.7751H33.1447V27.622H34.041C34.1871 27.6183 34.3321 27.6483 34.4645 27.7094C34.579 27.7639 34.6747 27.8504 34.7398 27.958C34.8067 28.0738 34.8403 28.2055 34.8369 28.3387C34.8411 28.472 34.8069 28.6038 34.7383 28.7188C34.6714 28.8235 34.5741 28.9061 34.459 28.9556L34.9113 29.7748H34.3363V29.7751ZM34.2509 28.1733C34.2218 28.1283 34.1788 28.0938 34.1282 28.075C34.064 28.0515 33.9958 28.0403 33.9274 28.0422H33.6689V28.6274H33.9287C33.9965 28.6292 34.0642 28.6189 34.1283 28.597C34.1787 28.5797 34.2219 28.5465 34.251 28.5024C34.2805 28.4528 34.295 28.396 34.2926 28.3386C34.2947 28.2807 34.2801 28.2234 34.2506 28.1733H34.2509ZM28.8319 29.6942C28.6679 29.7703 28.4882 29.8078 28.3069 29.8037C28.1257 29.7995 27.9479 29.7539 27.7877 29.6704C27.6304 29.5812 27.5028 29.4489 27.4205 29.2896C27.3289 29.1074 27.2839 28.906 27.2894 28.7029C27.2831 28.4941 27.3311 28.2872 27.4288 28.1018C27.5147 27.9432 27.6445 27.8119 27.8032 27.7232C27.9639 27.6354 28.145 27.5905 28.3288 27.5929C28.4482 27.5918 28.5671 27.6099 28.6807 27.6464C28.7851 27.68 28.8827 27.7314 28.9692 27.7981C29.0519 27.8619 29.1213 27.9409 29.1736 28.0307C29.2261 28.1216 29.2596 28.2218 29.2722 28.3256H28.7406C28.7297 28.284 28.712 28.2445 28.688 28.2086C28.665 28.1743 28.6355 28.1446 28.6012 28.1212C28.5652 28.097 28.5255 28.0787 28.4836 28.067C28.4365 28.0541 28.3879 28.0478 28.339 28.0483C28.2426 28.0461 28.1477 28.0725 28.0667 28.1241C27.986 28.1786 27.9237 28.2557 27.8877 28.3453C27.8431 28.4568 27.8218 28.576 27.825 28.6958C27.8219 28.816 27.8427 28.9357 27.8863 29.048C27.9213 29.1379 27.9825 29.2156 28.0623 29.2712C28.1448 29.3245 28.2419 29.3515 28.3405 29.3486C28.4246 29.351 28.5081 29.335 28.5851 29.3016C28.6484 29.2733 28.7013 29.2267 28.7369 29.1679C28.7703 29.1097 28.7879 29.0441 28.788 28.9772H28.358V28.5988H29.2955V28.882C29.3005 29.0552 29.2579 29.2265 29.1722 29.3777C29.0922 29.5134 28.974 29.6233 28.8319 29.6942Z" fill="#FF931A"/>
</g>
<defs>
<clipPath id="clip0_634_402">
<rect width="52" height="30" fill="white"/>
</clipPath>
</defs>
</svg>
