<svg width="52" height="30" viewBox="0 0 52 30" fill="none" xmlns="http://www.w3.org/2000/svg">
<g clip-path="url(#clip0_529_2180)">
<path fill-rule="evenodd" clip-rule="evenodd" d="M14.8927 27.6747C14.2188 27.6747 4.15496 27.6756 3.99364 27.6747C3.69363 27.6609 3.56192 27.405 4.07684 27.0197C4.53102 26.6386 13.6097 17.695 14.0607 17.2762C14.5118 16.8574 16.8715 14.083 15.6415 10.071C14.4116 6.05896 10.8553 4.15015 6.90561 4.58516C2.74474 5.18639 0.506682 9.20462 0.416078 10.4804C0.325474 11.7561 1.7451 11.7432 2.08006 10.9716C2.41502 10.2 3.6759 6.35012 7.6544 6.38647C13.8476 6.5553 14.2058 11.6802 13.8943 13.2642C13.5828 14.8482 13.3151 15.1089 12.9791 15.5568C12.6432 16.0047 0.997973 27.4197 0.416078 28.0022C-0.106662 28.5582 0.38804 29.5128 0.832074 29.5579C1.27611 29.6029 14.3176 29.5579 15.0591 29.5579C16.2944 29.5579 16.4049 27.6747 14.8927 27.6747Z" fill="#FF931A"/>
<path fill-rule="evenodd" clip-rule="evenodd" d="M22.8799 23.2534C24.265 23.2616 24.4422 25.0451 22.8799 25.1366C21.3175 25.2281 19.3902 25.2751 17.7215 24.891C16.0528 24.5068 10.4333 22.142 9.15199 17.6857C7.52877 13.3695 7.8035 7.82602 11.648 3.93028C15.4924 0.0345338 23.4684 -0.546143 26.7902 1.55582C30.112 3.65779 31.2402 5.11022 32.0318 6.63224C32.8233 8.15427 33.385 10.0354 33.5293 10.6442C33.6737 11.2531 32.1277 12.2163 31.6158 10.7261C31.1038 9.23595 31.1111 8.86562 30.035 6.95975C28.8105 5.05388 28.0101 4.49613 25.5422 3.02962C21.4797 0.750309 16.0502 2.66183 13.1455 5.24032C10.2409 7.81881 9.24351 14.2551 10.8992 17.1945C12.5548 20.1339 15.8667 22.8686 18.8031 23.1715C21.7395 23.4745 21.6636 23.2202 22.8799 23.2534Z" fill="#FF931A"/>
<path fill-rule="evenodd" clip-rule="evenodd" d="M35.2765 14.5743C35.259 14.6889 34.9647 15.9416 34.9437 16.0481C34.9227 16.1545 34.9344 16.2023 34.6941 16.2118C34.4538 16.2213 31.6906 16.2714 30.8669 16.2937C30.0433 16.3161 29.8551 18.4113 31.1165 18.4225C32.3779 18.4337 33.6257 18.4209 33.6957 18.4225C33.7288 18.4214 33.7618 18.427 33.7926 18.4389C33.8234 18.4508 33.8514 18.4689 33.8748 18.4919C33.8982 18.515 33.9165 18.5425 33.9287 18.5728C33.9408 18.6031 33.9465 18.6356 33.9453 18.6682C33.9396 18.8707 33.8753 19.7981 33.8621 19.8963C33.8489 19.9946 33.6786 20.297 33.4461 20.3057C33.2136 20.3144 31.3911 20.3057 30.1181 20.3057C28.8452 20.3057 28.3929 23.2533 30.0349 23.2533H33.9453C34.6906 23.2533 34.917 22.5171 35.0269 22.1889C35.1368 21.8607 35.6584 19.9261 35.9421 19.4051C36.2258 18.884 37.3534 17.5219 39.6028 17.5219C41.8523 17.5219 42.7085 19.2495 42.7644 19.8963C42.8203 20.5432 42.6329 21.2815 42.598 21.5339C42.5631 21.7863 41.9672 24.7954 41.9324 24.9727C41.8976 25.1501 41.8386 25.2122 41.6828 25.2184C41.5271 25.2245 40.4315 25.2184 40.1852 25.2184C39.939 25.2184 39.713 25.2266 39.8524 24.5634C39.9919 23.9002 40.5602 21.7649 40.6844 20.7151C40.8086 19.6654 39.9094 19.4201 39.4364 19.4051C38.9635 19.39 37.9578 19.6512 37.6893 20.4695C37.4207 21.2878 37.156 22.5548 36.6909 23.5808C36.2258 24.6068 34.931 25.2184 34.2781 25.2184H29.2861C27.6282 25.2184 26.6238 23.1223 26.6238 22.5983C26.6238 22.0743 26.6101 21.4097 26.7902 20.9607C26.9702 20.5118 27.5709 19.8314 27.955 19.4869C28.339 19.1425 28.4634 19.0423 28.2878 18.75C28.1121 18.4578 28.0382 17.9849 28.0382 17.2762C28.0382 16.5676 28.2897 15.8188 29.2029 15.2293C30.1162 14.6398 31.4138 14.4105 32.0317 14.4105H35.1101C35.2209 14.4105 35.294 14.4596 35.2765 14.5743Z" fill="#FF931A"/>
<path fill-rule="evenodd" clip-rule="evenodd" d="M47.4233 19.5688C47.5179 19.1867 47.6063 18.3536 47.7561 18.0131C47.9058 17.6726 48.308 17.2661 48.8377 17.2762C49.3673 17.2863 49.8813 17.7165 49.8361 18.2587C49.7908 18.8009 49.6042 19.4178 49.5865 19.6506C49.5687 19.8835 49.499 20.2128 49.8361 20.2238C50.1731 20.2348 51.2206 20.2402 51.5 20.3057C51.7795 20.3712 52.0124 20.688 51.9992 21.1244C51.9861 21.5608 51.8698 22.2743 51.2504 22.3526H49.6697C49.1583 22.3526 48.991 22.4892 48.9209 22.762C48.8507 23.0348 48.5881 24.4574 48.5049 24.7271C48.4217 24.9967 47.8564 25.4687 47.5065 25.464C47.1566 25.4592 46.5054 25.2114 46.5081 24.4814C46.5108 23.7515 46.6574 23.0595 46.6745 22.8439C46.6916 22.6282 46.694 22.3526 46.3417 22.3526C45.9894 22.3526 45.2693 22.4459 44.8441 22.1888C44.6686 22.0891 44.5225 21.946 44.4203 21.7737C44.3182 21.6014 44.2635 21.4058 44.2617 21.2063C44.27 20.8894 44.7056 20.2238 45.1769 20.2238C45.6482 20.2238 46.6131 20.2286 46.8409 20.2238C47.0687 20.219 47.3251 19.9652 47.4233 19.5688Z" fill="#FF931A"/>
<path fill-rule="evenodd" clip-rule="evenodd" d="M51.7354 28.7576C51.6693 28.8688 51.5715 28.9585 51.4542 29.0156C51.3201 29.0795 51.1724 29.111 51.0234 29.1074H50.6657V29.775H50.1415V27.6219H51.0381C51.185 27.6181 51.3306 27.6504 51.4616 27.7158C51.5771 27.7753 51.6727 27.8663 51.7369 27.9779C51.8035 28.0976 51.837 28.2324 51.834 28.3688C51.8373 28.5048 51.8032 28.6391 51.7354 28.7576ZM51.2476 28.1949C51.2194 28.1458 51.1766 28.1064 51.1249 28.0821C51.062 28.0538 50.9933 28.0402 50.9242 28.0424H50.6657V28.697H50.926C50.9949 28.6993 51.0634 28.6852 51.1257 28.6561C51.1774 28.6308 51.2201 28.5909 51.2484 28.5414C51.2757 28.4876 51.2899 28.4282 51.2897 28.368C51.2896 28.3079 51.2752 28.2486 51.2476 28.1949ZM45.8776 29.7056C45.7253 29.7704 45.5612 29.8038 45.3953 29.8038C45.2294 29.8038 45.0653 29.7704 44.913 29.7056C44.7813 29.6453 44.6696 29.5493 44.591 29.4289C44.5121 29.3029 44.472 29.1571 44.4756 29.0091V27.6219H44.9998V28.9658C44.9984 29.0355 45.0158 29.1043 45.0502 29.1652C45.0831 29.2223 45.1313 29.2693 45.1897 29.301C45.2533 29.3333 45.3239 29.3502 45.3956 29.3502C45.4672 29.3502 45.5378 29.3333 45.6015 29.301C45.6598 29.2692 45.708 29.2222 45.7409 29.1652C45.7753 29.1043 45.7927 29.0355 45.7913 28.9658V27.6219H46.3154V29.0091C46.319 29.1571 46.2789 29.3029 46.2 29.4289C46.1214 29.5494 46.0095 29.6454 45.8776 29.7056ZM40.1858 29.676C40.0228 29.7601 39.8415 29.804 39.6574 29.8039C39.4734 29.8037 39.2921 29.7596 39.1292 29.6752C38.9708 29.5884 38.8414 29.4581 38.7568 29.3003C38.6669 29.112 38.6203 28.9065 38.6203 28.6984C38.6203 28.4903 38.6669 28.2848 38.7568 28.0965C38.841 27.9382 38.9705 27.8076 39.1292 27.7209C39.2922 27.6368 39.4735 27.593 39.6575 27.593C39.8415 27.593 40.0228 27.6368 40.1858 27.7209C40.3443 27.8079 40.4737 27.9384 40.5582 28.0965C40.6486 28.2848 40.6955 28.4904 40.6955 28.6987C40.6955 28.9069 40.6486 29.1125 40.5582 29.3008C40.4736 29.4587 40.3442 29.5891 40.1858 29.676ZM40.0996 28.3437C40.066 28.2548 40.006 28.178 39.9273 28.1233C39.8466 28.0742 39.7535 28.0482 39.6586 28.0482C39.5637 28.0482 39.4707 28.0742 39.3899 28.1233C39.3112 28.1781 39.2509 28.2549 39.2169 28.3437C39.1735 28.4574 39.1529 28.5784 39.1563 28.6999C39.1529 28.8207 39.1735 28.9409 39.2169 29.0539C39.2511 29.1425 39.3114 29.2189 39.3899 29.2736C39.4707 29.3227 39.5637 29.3487 39.6586 29.3487C39.7535 29.3487 39.8466 29.3227 39.9273 29.2736C40.0058 29.219 40.0658 29.1425 40.0996 29.0539C40.1425 28.9408 40.1629 28.8206 40.1595 28.6999C40.1629 28.5785 40.1426 28.4576 40.0996 28.3437ZM34.3361 29.775L33.9391 29.0377H33.6687V29.775H33.1445V27.6219H34.0407C34.1869 27.6182 34.3319 27.6482 34.4642 27.7093C34.5787 27.7638 34.6745 27.8502 34.7395 27.9579C34.8065 28.0737 34.84 28.2054 34.8366 28.3386C34.8409 28.4719 34.8067 28.6037 34.738 28.7186C34.6712 28.8234 34.5739 28.9059 34.4587 28.9555L34.9111 29.7747H34.3361V29.775ZM34.2506 28.1731C34.2216 28.1282 34.1785 28.0937 34.1279 28.0748C34.0638 28.0513 33.9956 28.0402 33.9272 28.0421H33.6687V28.6273H33.9284C33.9963 28.6291 34.0639 28.6188 34.1281 28.5969C34.1785 28.5796 34.2217 28.5463 34.2508 28.5023C34.2803 28.4527 34.2947 28.3959 34.2924 28.3385C34.2944 28.2806 34.2798 28.2233 34.2503 28.1731H34.2506ZM28.8316 29.6941C28.6677 29.7702 28.4879 29.8077 28.3067 29.8035C28.1255 29.7994 27.9477 29.7538 27.7875 29.6702C27.6302 29.581 27.5026 29.4488 27.4202 29.2895C27.3287 29.1073 27.2837 28.9059 27.2891 28.7028C27.2829 28.494 27.3309 28.2871 27.4286 28.1016C27.5144 27.9431 27.6443 27.8118 27.803 27.7231C27.9636 27.6353 28.1448 27.5903 28.3285 27.5927C28.448 27.5917 28.5669 27.6097 28.6805 27.6462C28.7848 27.6799 28.8825 27.7312 28.9689 27.798C29.0516 27.8618 29.1211 27.9408 29.1733 28.0306C29.2258 28.1214 29.2594 28.2217 29.2719 28.3255H28.7404C28.7295 28.2839 28.7117 28.2444 28.6878 28.2085C28.6647 28.1742 28.6352 28.1445 28.6009 28.121C28.565 28.0968 28.5253 28.0786 28.4834 28.0669C28.4363 28.0539 28.3876 28.0476 28.3388 28.0481C28.2423 28.0459 28.1474 28.0724 28.0664 28.124C27.9857 28.1785 27.9234 28.2555 27.8875 28.3452C27.8429 28.4567 27.8216 28.5759 27.8248 28.6956C27.8216 28.8159 27.8425 28.9355 27.8861 29.0479C27.921 29.1378 27.9823 29.2155 28.062 29.2711C28.1445 29.3244 28.2416 29.3514 28.3403 29.3485C28.4243 29.3509 28.5079 29.3349 28.5849 29.3015C28.6481 29.2732 28.7011 29.2266 28.7367 29.1678C28.7701 29.1096 28.7877 29.0439 28.7878 28.9771H28.3577V28.5987H29.2953V28.8819C29.3003 29.0551 29.2576 29.2263 29.1719 29.3776C29.0919 29.5133 28.9737 29.6232 28.8316 29.6941Z" fill="#FF931A"/>
</g>
<defs>
<clipPath id="clip0_529_2180">
<rect width="52" height="30" fill="white"/>
</clipPath>
</defs>
</svg>
