<svg width="28" height="32" viewBox="0 0 28 32" fill="none" xmlns="http://www.w3.org/2000/svg">
<path fill-rule="evenodd" clip-rule="evenodd" d="M2.27806 21.5433C3.73667 20.0431 5.71498 19.2002 7.77778 19.2002H20.2222C22.285 19.2002 24.2633 20.0431 25.7219 21.5433C27.1806 23.0436 28 25.0785 28 27.2002V30.4002C28 31.2839 27.3036 32.0002 26.4444 32.0002C25.5853 32.0002 24.8889 31.2839 24.8889 30.4002V27.2002C24.8889 25.9272 24.3972 24.7063 23.5221 23.8061C22.6469 22.9059 21.4599 22.4002 20.2222 22.4002H7.77778C6.5401 22.4002 5.35312 22.9059 4.47795 23.8061C3.60278 24.7063 3.11111 25.9272 3.11111 27.2002V30.4002C3.11111 31.2839 2.41467 32.0002 1.55556 32.0002C0.696446 32.0002 0 31.2839 0 30.4002V27.2002C0 25.0785 0.819442 23.0436 2.27806 21.5433Z" fill="#131313" fill-opacity="0.9"/>
<path fill-rule="evenodd" clip-rule="evenodd" d="M14.0004 3.2C11.4231 3.2 9.33377 5.34904 9.33377 8.00001C9.33377 10.651 11.4231 12.8 14.0004 12.8C16.5778 12.8 18.6671 10.651 18.6671 8.00001C18.6671 5.34904 16.5778 3.2 14.0004 3.2ZM6.22266 8.00001C6.22266 3.58173 9.70489 0 14.0004 0C18.296 0 21.7782 3.58173 21.7782 8.00001C21.7782 12.4183 18.296 16 14.0004 16C9.70489 16 6.22266 12.4183 6.22266 8.00001Z" fill="#131313" fill-opacity="0.9"/>
</svg>
